<svg xmlns="http://www.w3.org/2000/svg" xmlns:xlink="http://www.w3.org/1999/xlink" width="686" height="163" viewBox="0 0 686 163">
    <title>
        izitravel
    </title>
    <defs>
        <path id="a" d="M0 .4v29h13V.4H0z"/>
        <path id="c" d="M1 32h34V0H1z"/>
        <path id="e" d="M.8 32H46V0H.8v32z"/>
        <path id="g" d="M343 0H0v91.5h686V0H343z"/>
    </defs>
    <g fill="none" fill-rule="evenodd">
        <g transform="translate(0 125)">
            <mask id="b" fill="#fff">
                <use xlink:href="#a"/>
            </mask>
            <path d="M3.7 24.2V9.6H0v-3h3.7V.4h3.5v6.2h4.6v3H7.2v14c0 1.6.8 2.8 2.2 2.8 1 0 2-.5 2.4-1l1 2.6c-1 1-2 1.5-4 1.5-3.4 0-5-2-5-5.3" fill="#4B4D4C" mask="url(#b)"/>
        </g>
        <path d="M31.8 154v-15c0-4-2-5-5-5-2.8 0-5.4 1.6-6.7 3.4V154H17v-31H20v11.8c1.7-2 4.7-3.8 8-3.8 4.8 0 7.2 2.3 7.2 7v16h-3.4M52 134c-5 0-7.3 4-7.5 7.3h14.7c0-3.3-2.2-7.4-7.3-7.4m-11 8.6c0-6.5 4.4-11.7 11-11.7s10.5 5.2 10.5 12v1h-18c.3 4 3.2 7.5 8 7.5 2.6 0 5-1 7-3L61 151c-2.3 2.2-5.3 3.5-9 3.5-6.5 0-11.3-4.8-11.3-11.8m37.6 8.3l1.8-2.5c1.7 1.7 4.5 3.2 7.6 3.2 3.4 0 5.3-1.7 5.3-4 0-5.3-14-2-14-10.3 0-3.5 3-6.4 8.3-6.4 4 0 6.6 1.4 8.3 3.2l-1.6 2.5c-1.4-1.7-3.8-3-6.8-3s-5 1.7-5 3.6c0 5 14 1.7 14 10.4 0 3.8-3 6.8-8.8 6.8-3.7 0-6.8-1.2-9-3.5m24-1.8v-14.6H99v-3h3.7v-6.2h3.5v6.2h4.5v3H106v14c0 1.6.7 2.8 2.2 2.8 1 0 2-.5 2.4-1l1 2.6c-1 1-2 1.5-4 1.5-3.5 0-5-2-5-5.3m30-6.5c0-4.5-2.7-8.6-7.4-8.6-4.8 0-7.5 4.3-7.5 8.8 0 4.6 2.7 8.7 7.5 8.7 4.7 0 7.4-4 7.4-8.7m-18.5 0c0-6.5 4.4-11.7 11.3-11.7 6.8 0 11 5.3 11 11.8 0 6.5-4.2 11.8-11 11.8-7 0-11-5.3-11-11.8" fill="#4B4D4C"/>
        <g transform="translate(141 131)">
            <mask id="d" fill="#fff">
                <use xlink:href="#c"/>
            </mask>
            <path d="M1 23V.5h3.3V4C6 2 8.7 0 11.8 0v3.6h-1.3c-2.2 0-5 1.7-6.2 3.5v16H1m14.5 5.5c.5.3 1.3.4 2 .4 1.4 0 2.4-.7 3.2-2.6l1.5-3.3L12.8.7h3.8L24 19 31.5.5h3.7L24 27.5c-1.3 3-3.6 4.5-6.6 4.5-.7 0-2 0-2.5-.3l.4-3.2" fill="#4B4D4C" mask="url(#d)"/>
        </g>
        <path d="M180.5 149.2v-14.6h-3.7v-3h3.7v-6.2h3.5v6.2h4.6v3H184v14c0 1.6.8 2.8 2.3 2.8 1 0 2-.5 2.3-1l1 2.6c-.8 1-2 1.5-4 1.5-3.4 0-5-2-5-5.3M203 134c-4.6 0-7 4-7.2 7.3h14.7c0-3.3-2.3-7.4-7.4-7.4m-10.7 8.6c0-6.5 4.6-11.7 11-11.7 6.7 0 10.7 5.2 10.7 12v1h-18c0 4 3 7.5 8 7.5 2.5 0 5-1 6.8-3l1.7 2.4c-2.3 2-5.3 3.4-9 3.4-6.6 0-11.3-4.8-11.3-11.8m27.3 11.4h3.5v-31h-3.5m10.5 31h3.4v-31H230m10.3 31h3.5v-22.4h-3.5V154zm-.6-28c0-1.2 1-2.3 2.4-2.3s2.5 1 2.5 2.3c0 1.3-1 2.4-2.3 2.4-1.2 0-2.3-1-2.3-2.4z" fill="#4B4D4C"/>
        <g transform="translate(250 131)">
            <mask id="f" fill="#fff">
                <use xlink:href="#e"/>
            </mask>
            <path d="M16 23V8.2c0-4-2-5.2-5-5.2S5.5 5 4 6.7V23H.8V.5h3.4v3.2C5.8 1.7 9 0 12.2 0c4.7 0 7 2.4 7 7.2V23H16m26.5-6.5V6.7c-1.2-2-4-3.6-6.6-3.6-4.8 0-7.5 3.8-7.5 8.7 0 5 2.7 8.5 7.3 8.5 2.6 0 5.3-1.6 6.5-3.5M26 28.7l1.8-2.4c2 2.3 4 3 7.3 3 3.8 0 7.3-1.7 7.3-6.4v-3.5c-1.6 2.3-4.4 4-7.5 4-5.8 0-10-4.4-10-11.6C25 4.3 29 0 35 0c3 0 5.7 1.5 7.5 4V.5H46v22c0 7-5.2 9.4-10.7 9.4-3.7 0-6.3-.8-9-3.5" fill="#4B4D4C" mask="url(#f)"/>
        </g>
        <path d="M332.3 142.7c0-5-2.7-8.6-7.2-8.6-2.5 0-5.3 1.8-6.5 3.8v10c1.2 2 4 3.7 6.7 3.7 4.6 0 7.3-3.7 7.3-8.7m-14 7.8v12H315v-31h3.4v3.4c1.6-2.4 4.4-4 7.6-4 5.8 0 10 4.4 10 11.7 0 7.2-4.2 11.8-10 11.8-3 0-5.7-1.5-7.6-4m23 3.5h3.5v-31h-3.7m24.5 26.2V145c-1.3-2-3.7-2.8-6-2.8-3.4 0-5.6 2-5.6 5 0 2.7 2.2 4.8 5.5 4.8 2.4 0 4.8-1 6-2.8m0 4.7v-2.7c-1.7 2-4.3 3-7.3 3-3.7 0-7.8-2.5-7.8-7.3 0-5 4-7.3 7.8-7.3 3 0 5.6 1 7.4 3v-4c0-3-2.4-4.7-5.6-4.7-2.7 0-5 1-7 3l-1.5-2.3c2.4-2.5 5.3-3.7 9-3.7 4.7 0 8.6 2 8.6 7.6V154h-3.5m11.2-4.8v-14.6h-3.7v-3h3.7v-6.2h3.5v6.2h4.5v3h-4.5v14c0 1.6.7 2.8 2.2 2.8 1 0 2-.5 2.4-1l1 2.6c-.7 1-2 1.5-4 1.5-3.2 0-5-2-5-5.3m14 4.8v-19.4h-4v-3h3.7v-1.8c0-4.5 2.4-7.2 6.4-7.2 2 0 3.4.4 4.8 1.7l-1.4 2.2c-.7-.6-1.6-1-2.7-1-2.4 0-3.6 1.5-3.6 4.3v1.8h4.6v3H394V154h-3m29.2-11.3c0-4.5-2.6-8.6-7.4-8.6-4.7 0-7.4 4.3-7.4 8.8 0 4.6 2.7 8.7 7.4 8.7 4.8 0 7.4-4 7.4-8.7m-18.4 0c0-6.5 4.2-11.7 11-11.7s11 5.3 11 11.8c0 6.5-4.2 11.8-11 11.8s-11-5.3-11-11.8m27.7 11.2v-22.4h3.5v3.5c1.8-2 4.4-4 7.5-4v3.7H439c-2 0-5 1.7-6 3.5v16h-3.5m42.3-.2v-15.3c0-2.8-1.2-4.6-4-4.6-2.4 0-5 1.8-6 3.6V154h-3.5v-15.3c0-2.8-1.2-4.6-4-4.6-2.4 0-4.8 2-6 3.7V154h-3.5v-22.4h3.5v3.2c1-1.4 4-3.8 7.3-3.8s5.3 2 6 4.2c1.2-2 4.2-4.2 7.4-4.2 4 0 6.3 2.3 6.3 6.8v16h-3.5" fill="#4B4D4C"/>
        <path d="M186 60.2c-8.5 0-15.5 7-15.5 15.6s7 15.6 15.6 15.6c8.8 0 15.8-7 15.8-15.6s-7-15.6-15.6-15.6m0 6c5.4 0 9.6 4.3 9.6 9.6s-4.2 9.6-9.5 9.6c-5.2 0-9.5-4.3-9.5-9.6s4.3-9.6 9.6-9.6" fill="#CA2449"/>
        <path fill="#255066" d="M228.4 91.5V17.2h-26.7V.2h73v17H248v74.3h-19.6m112.2-62c0-7.6-6-12.3-13.6-12.3h-20.5V42H327c7.7 0 13.6-4.8 13.6-12.6m-2 62l-18-32.4h-14v32.5H287V0h42.8c19 0 30.8 12.6 30.8 29.5 0 16-10.3 24.8-20 27.2L361 91.5h-22.5m74.5-72L398.6 59H427l-14-39.6zm25.3 72L432.5 76h-39l-6 15.5h-22L400.8 0H425l35.4 91.5h-22zm42.2 0L445.3 0h22l25.4 70.2L518 .2h22l-35 91.3h-24.5m68 0V0h64.8v17.2H568v19.2h44.3v17H568v21h45.3v17h-64.7"/>
        <mask id="h" fill="#fff">
            <use xlink:href="#g"/>
        </mask>
        <path fill="#255066" mask="url(#h)" d="M627.7 91.5V0h19.5v74.3H686v17.2h-58.3"/>
        <path d="M28 80l11 2.6-1.4 8.8H1.4L0 82.6 11 80V45.5l-9.6-.2-1.4-9 20.3-6.5H28V80zm0-70.4c0 5.3-4.2 9.6-9.5 9.6S9 15 9 9.6C9 4.4 13.2 0 18.5 0S28 4.5 28 9.7z" fill="#CA2449" mask="url(#h)"/>
        <path fill="#CA2449" d="M97.8 80.3l-1.5 11H47.8L46.6 83l30.8-41.6h-18l-2.7 11L48 51v-9.7l1.3-10.7H95l1.3 9.3L67.7 80h18.7l2.5-11 8.7 1.5v9.5M134 80l10.8 2.6-1.3 8.8h-36.3l-1.4-8.8 11-2.6V45.5l-9.6-.2-1.4-9 20.3-6.5h8V80zm0-70.4c0 5.3-4.4 9.6-9.7 9.6-5.3 0-9.5-4.3-9.5-9.6 0-5.2 4.2-9.5 9.5-9.5s9.6 4.5 9.6 9.7z"/>
    </g>
</svg>