<?xml version="1.0" encoding="UTF-8" standalone="no"?>
<svg
   width="100"
   height="100"
   viewBox="0 0 100 100"
   fill="none"
   version="1.1"
   id="svg2890"
   sodipodi:docname="Location_1.svg"
   inkscape:version="1.2.2 (732a01da63, 2022-12-09)"
   xmlns:inkscape="http://www.inkscape.org/namespaces/inkscape"
   xmlns:sodipodi="http://sodipodi.sourceforge.net/DTD/sodipodi-0.dtd"
   xmlns="http://www.w3.org/2000/svg"
   xmlns:svg="http://www.w3.org/2000/svg">
  <sodipodi:namedview
     id="namedview2892"
     pagecolor="#505050"
     bordercolor="#ffffff"
     borderopacity="1"
     inkscape:showpageshadow="0"
     inkscape:pageopacity="0"
     inkscape:pagecheckerboard="1"
     inkscape:deskcolor="#505050"
     showgrid="false"
     inkscape:zoom="4.315"
     inkscape:cx="39.745075"
     inkscape:cy="55.388181"
     inkscape:window-width="1920"
     inkscape:window-height="1017"
     inkscape:window-x="-8"
     inkscape:window-y="-8"
     inkscape:window-maximized="1"
     inkscape:current-layer="svg2890" />
  <g
     clip-path="url(#clip0_276_34)"
     id="g2863"
     transform="matrix(1.1294657,0,0,1.1294657,-6.4732832,-4.5146892)">
    <path
       fill-rule="evenodd"
       clip-rule="evenodd"
       d="M 14.6849,36.9049 C 16.1612,18.994 31.1285,5.20972 49.1,5.20972 h 1.8 c 17.9717,0 32.9388,13.78428 34.415,31.69518 0.7934,9.6215 -2.1787,19.1752 -8.29,26.649 L 57.0542,87.978 c -3.6458,4.4588 -10.4625,4.4588 -14.1083,0 L 22.9749,63.5539 c -6.1111,-7.4738 -9.0831,-17.0275 -8.29,-26.649 z"
       fill="url(#paint0_linear_276_34)"
       id="path2855"
       sodipodi:nodetypes="csscccccc"
       style="fill:url(#paint0_linear_276_34)" />
    <path
       fill-rule="evenodd"
       clip-rule="evenodd"
       d="m 30,34.5367 c 0,-6.5185 5.4152,-11.5375 11.7714,-11.5375 3.2765,0 6.1596,1.6224 8.2286,3.7217 2.069,-2.0993 4.952,-3.7217 8.2286,-3.7217 6.3563,0 11.7714,5.019 11.7714,11.5375 0,4.4652 -1.8032,8.3918 -4.3013,11.711 -2.4939,3.3136 -6.5753,6.4664 -9.6987,8.7515 -1.1931,0.8728 -3,2 -4,3 -1,1 -1,1.5 -2,1.5 -1,0 -1.2341,-0.662 -1.7589,-1.1868 C 47.7164,57.7877 46.193,56.372 45,55.4992 41.8766,53.2141 36.7951,49.5613 34.3013,46.2477 31.8032,42.9285 30,39.0019 30,34.5367 Z"
       fill="url(#paint2_linear_276_34)"
       id="path2859"
       inkscape:label="path2859"
       sodipodi:nodetypes="sscssscsssscs"
       style="fill:url(#paint2_linear_276_34)" />
  </g>
  <defs
     id="defs2888">
    <linearGradient
       id="paint0_linear_276_34"
       x1="50"
       y1="5.20825"
       x2="50"
       y2="91.3207"
       gradientUnits="userSpaceOnUse">
      <stop
         stop-color="#BC9AFF"
         stop-opacity="0.85"
         id="stop2865" />
      <stop
         offset="1"
         stop-color="#8550EF"
         id="stop2867" />
    </linearGradient>
    <linearGradient
       id="paint1_linear_276_34"
       x1="50"
       y1="5.20825"
       x2="50"
       y2="91.3207"
       gradientUnits="userSpaceOnUse">
      <stop
         stop-color="#BC9AFF"
         stop-opacity="0.85"
         id="stop2870" />
      <stop
         offset="1"
         stop-color="#8550EF"
         id="stop2872" />
    </linearGradient>
    <linearGradient
       id="paint2_linear_276_34"
       x1="50"
       y1="19.2783"
       x2="50"
       y2="55.7783"
       gradientUnits="userSpaceOnUse">
      <stop
         stop-color="#FEB77D"
         id="stop2875" />
      <stop
         offset="1"
         stop-color="#FD997D"
         id="stop2877" />
    </linearGradient>
    <linearGradient
       id="paint3_linear_276_34"
       x1="50"
       y1="19.2783"
       x2="50"
       y2="55.7783"
       gradientUnits="userSpaceOnUse">
      <stop
         stop-color="#FEB77D"
         id="stop2880" />
      <stop
         offset="1"
         stop-color="#FD997D"
         id="stop2882" />
    </linearGradient>
    <clipPath
       id="clip0_276_34">
      <rect
         width="100"
         height="100"
         fill="white"
         id="rect2885" />
    </clipPath>
  </defs>
</svg>
