<svg width="360" height="800" viewBox="0 0 360 800" fill="none" xmlns="http://www.w3.org/2000/svg">
<rect width="360" height="800" fill="#8F5AF6"/>
<g filter="url(#filter0_f_1_19)">
<rect x="297" y="184" width="478" height="478" rx="239" fill="white"/>
</g>
<path d="M156.5 392.477C306.1 308.877 411.5 341.643 445.5 368.477L491 474.977C484.833 543.144 570.8 679.177 468 695.977C339.5 716.977 296.5 622.977 216 576.477C151.6 539.277 -3.66669 589.644 -24.5 626.977L-232 457.977C-164.833 470.977 6.89993 476.077 156.5 392.477Z" fill="#824CF0"/>
<path d="M223.788 211.489C107.03 249.807 24.7692 234.788 -1.7667 222.489L-37.278 173.676C-32.4651 142.432 -99.5595 80.0815 -19.3274 72.3813C80.9627 62.756 114.523 105.84 177.35 127.154C227.612 144.204 348.793 121.119 365.053 104.007L527 181.467C474.579 175.509 340.546 173.171 223.788 211.489Z" fill="#824CF0"/>
<defs>
<filter id="filter0_f_1_19" x="47" y="-66" width="978" height="978" filterUnits="userSpaceOnUse" color-interpolation-filters="sRGB">
<feFlood flood-opacity="0" result="BackgroundImageFix"/>
<feBlend mode="normal" in="SourceGraphic" in2="BackgroundImageFix" result="shape"/>
<feGaussianBlur stdDeviation="125" result="effect1_foregroundBlur_1_19"/>
</filter>
</defs>
</svg>
