<svg width="30" height="30" viewBox="0 0 30 30" fill="none" xmlns="http://www.w3.org/2000/svg">
<circle cx="15" cy="15" r="14" fill="url(#paint0_linear_1_627)" stroke="url(#paint1_linear_1_627)" stroke-width="2"/>
<path d="M14.9889 9.16724C13.0806 9.16724 11.5281 10.7197 11.5281 12.628C11.5281 14.5364 13.0806 16.089 14.9889 16.089C16.8974 16.089 18.4499 14.5364 18.4499 12.628C18.4499 10.7197 16.8974 9.16724 14.9889 9.16724ZM14.9889 15.1535C13.5964 15.1535 12.4635 14.0206 12.4635 12.628C12.4635 11.2356 13.5965 10.1026 14.9889 10.1026C16.3815 10.1026 17.5144 11.2356 17.5144 12.628C17.5144 14.0206 16.3815 15.1535 14.9889 15.1535Z" fill="white"/>
<path fill-rule="evenodd" clip-rule="evenodd" d="M9.125 12.8639C9.125 9.6305 11.7555 7 14.9889 7C18.2223 7 20.8529 9.63047 20.8529 12.8639C20.8529 14.3492 19.9168 16.4479 18.071 19.1016C16.7217 21.0414 15.3946 22.5425 15.3388 22.6055C15.1528 22.8152 14.8251 22.8153 14.6391 22.6055C14.5831 22.5425 13.2561 21.0414 11.9069 19.1016C10.0609 16.4479 9.125 14.3492 9.125 12.8639ZM17.2642 18.6215C17.2791 18.6012 17.2938 18.5806 17.3082 18.5598C19.0152 16.1046 19.9173 14.135 19.9173 12.8639C19.9173 10.1464 17.7065 7.93544 14.9889 7.93544C12.2714 7.93544 10.0604 10.1464 10.0604 12.8639C10.0604 14.1363 10.9645 16.1086 12.6748 18.5674C12.7375 18.6575 12.8039 18.7426 12.8738 18.8227L14.3814 21.0217C14.6793 21.4563 15.3207 21.4563 15.6186 21.0217L17.2642 18.6215Z" fill="white"/>
<defs>
<linearGradient id="paint0_linear_1_627" x1="31.2269" y1="-0.578808" x2="18.3962" y2="31.3642" gradientUnits="userSpaceOnUse">
<stop stop-color="#FF917F"/>
<stop offset="1" stop-color="#FEB77D"/>
</linearGradient>
<linearGradient id="paint1_linear_1_627" x1="31.2269" y1="-0.578808" x2="18.3962" y2="31.3642" gradientUnits="userSpaceOnUse">
<stop stop-color="#FF917F"/>
<stop offset="1" stop-color="#FEB77D"/>
</linearGradient>
</defs>
</svg>
